
<svg width="23" height="30" viewBox="0 0 23 30" fill="none" xmlns="http://www.w3.org/2000/svg">
    <path d="M21.125 0.708252C20.7603 0.708252 20.4106 0.859154 20.1527 1.12776C19.8949 1.39637 19.75 1.76068 19.75 2.14054V9.96086L18.375 10.9205V2.14054C18.375 1.76068 18.2301 1.39637 17.9723 1.12776C17.7144 0.859154 17.3647 0.708252 17 0.708252C16.6353 0.708252 16.2856 0.859154 16.0277 1.12776C15.7699 1.39637 15.625 1.76068 15.625 2.14054V10.9205L14.25 9.96086V2.14054C14.25 1.76068 14.1051 1.39637 13.8473 1.12776C13.5894 0.859154 13.2397 0.708252 12.875 0.708252C12.5103 0.708252 12.1606 0.859154 11.9027 1.12776C11.6449 1.39637 11.5 1.76068 11.5 2.14054V10.7343C11.5012 10.9702 11.5583 11.2022 11.6662 11.4095C11.7742 11.6169 11.9296 11.7933 12.1187 11.9231L15.625 14.3723V27.9218C15.625 28.3017 15.7699 28.666 16.0277 28.9346C16.2856 29.2032 16.6353 29.3541 17 29.3541C17.3647 29.3541 17.7144 29.2032 17.9723 28.9346C18.2301 28.666 18.375 28.3017 18.375 27.9218V14.3723L21.8812 11.9231C22.0704 11.7933 22.2258 11.6169 22.3338 11.4095C22.4417 11.2022 22.4988 10.9702 22.5 10.7343V2.14054C22.5 1.76068 22.3551 1.39637 22.0973 1.12776C21.8394 0.859154 21.4897 0.708252 21.125 0.708252ZM7.375 0.708252C5.55164 0.708252 3.80295 1.46276 2.51364 2.80579C1.22433 4.14883 0.5 5.97037 0.5 7.86971V16.4635C0.5 16.8433 0.644866 17.2076 0.902728 17.4762C1.16059 17.7449 1.51033 17.8958 1.875 17.8958H6V27.9218C6 28.3017 6.14487 28.666 6.40273 28.9346C6.66059 29.2032 7.01033 29.3541 7.375 29.3541C7.73967 29.3541 8.08941 29.2032 8.34727 28.9346C8.60513 28.666 8.75 28.3017 8.75 27.9218V2.14054C8.75 1.76068 8.60513 1.39637 8.34727 1.12776C8.08941 0.859154 7.73967 0.708252 7.375 0.708252ZM6 15.0312H3.25V7.86971C3.24955 6.98076 3.5138 6.11354 4.00633 5.38758C4.49885 4.66161 5.19541 4.11264 6 3.81633V15.0312Z" fill="white"/>
</svg>
