
<svg width="67" height="67" viewBox="0 0 67 67" fill="none" xmlns="http://www.w3.org/2000/svg">
    <path d="M67 33.5L50.25 62.5118L16.75 62.5118L-1.46433e-06 33.5L16.75 4.48815L50.25 4.48815L67 33.5Z" fill="white"/>
    <path d="M48.3889 46.8996H18.6111V43.9218H20.1V21.5885C20.1 21.1936 20.2568 20.8149 20.5361 20.5357C20.8153 20.2565 21.194 20.0996 21.5889 20.0996H42.4333C42.8282 20.0996 43.2069 20.2565 43.4861 20.5357C43.7653 20.8149 43.9222 21.1936 43.9222 21.5885V29.0329H46.9V43.9218H48.3889V46.8996ZM40.9444 43.9218H43.9222V32.0107H34.9889V43.9218H37.9666V34.9885H40.9444V43.9218ZM40.9444 29.0329V23.0774H23.0778V43.9218H32.0111V29.0329H40.9444ZM26.0555 32.0107H29.0333V34.9885H26.0555V32.0107ZM26.0555 37.9663H29.0333V40.9441H26.0555V37.9663ZM26.0555 26.0552H29.0333V29.0329H26.0555V26.0552Z" fill="url(#paint0_linear_3490_166)"/>
    <defs>
        <linearGradient id="paint0_linear_3490_166" x1="33.5" y1="20.0996" x2="33.5" y2="46.8996" gradientUnits="userSpaceOnUse">
            <stop stop-color="#A0051B"/>
            <stop offset="1" stop-color="#D00724"/>
        </linearGradient>
    </defs>
</svg>
