<svg width="36" height="36" viewBox="0 0 36 36" fill="none" xmlns="http://www.w3.org/2000/svg">
    <rect width="36" height="36" rx="7" fill="white"/>
    <path d="M19.2404 14.541L20.3499 15.6505C20.8596 16.1601 21.264 16.7652 21.5398 17.4312C21.8157 18.0971 21.9577 18.8109 21.9577 19.5317C21.9577 20.2525 21.8157 20.9663 21.5398 21.6323C21.264 22.2982 20.8596 22.9033 20.3499 23.413L20.0723 23.6897C19.0429 24.7191 17.6468 25.2974 16.1911 25.2974C14.7353 25.2974 13.3392 24.7191 12.3098 23.6897C11.2804 22.6604 10.7021 21.2643 10.7021 19.8085C10.7021 18.3527 11.2804 16.9566 12.3098 15.9273L13.4193 17.0367C13.0526 17.4002 12.7614 17.8325 12.5622 18.3089C12.3631 18.7852 12.26 19.2962 12.2589 19.8124C12.2577 20.3287 12.3586 20.8402 12.5556 21.3174C12.7527 21.7946 13.0421 22.2281 13.4071 22.5932C13.7722 22.9583 14.2058 23.2476 14.683 23.4447C15.1602 23.6418 15.6716 23.7426 16.1879 23.7415C16.7042 23.7403 17.2152 23.6373 17.6915 23.4381C18.1678 23.239 18.6001 22.9477 18.9636 22.581L19.2412 22.3035C19.9762 21.5683 20.389 20.5713 20.389 19.5317C20.389 18.4922 19.9762 17.4951 19.2412 16.76L18.1317 15.6505L19.2412 14.5418L19.2404 14.541ZM24.5079 19.2541L23.3992 18.1454C23.7659 17.782 24.0571 17.3497 24.2563 16.8733C24.4554 16.397 24.5585 15.886 24.5596 15.3697C24.5608 14.8534 24.4599 14.342 24.2629 13.8648C24.0658 13.3876 23.7765 12.954 23.4114 12.589C23.0463 12.2239 22.6127 11.9345 22.1355 11.7375C21.6583 11.5404 21.1469 11.4396 20.6306 11.4407C20.1143 11.4418 19.6034 11.5449 19.127 11.7441C18.6507 11.9432 18.2184 12.2345 17.8549 12.6011L17.5773 12.8787C16.8424 13.6139 16.4295 14.6109 16.4295 15.6505C16.4295 16.69 16.8424 17.687 17.5773 18.4222L18.6868 19.5317L17.5773 20.6404L16.4686 19.5317C15.9589 19.022 15.5546 18.417 15.2787 17.751C15.0028 17.0851 14.8609 16.3713 14.8609 15.6505C14.8609 14.9296 15.0028 14.2159 15.2787 13.5499C15.5546 12.884 15.9589 12.2789 16.4686 11.7692L16.7462 11.4924C17.7756 10.4631 19.1717 9.88477 20.6275 9.88477C22.0832 9.88477 23.4793 10.4631 24.5087 11.4924C25.5381 12.5218 26.1164 13.9179 26.1164 15.3737C26.1164 16.8294 25.5381 18.2256 24.5087 19.2549L24.5079 19.2541Z" fill="#A0051B"/>
</svg>
