
<svg width="21" height="21" viewBox="0 0 21 21" fill="none" xmlns="http://www.w3.org/2000/svg">
    <path d="M10.4999 20.917C4.74679 20.917 0.083252 16.2533 0.083252 10.5C0.083252 4.7467 4.74679 0.0830078 10.4999 0.0830078C16.253 0.0830078 20.9166 4.7467 20.9166 10.5C20.9166 16.2533 16.253 20.917 10.4999 20.917ZM10.4999 18.8336C12.71 18.8336 14.8297 17.9556 16.3925 16.3927C17.9553 14.8299 18.8332 12.7102 18.8332 10.5C18.8332 8.28979 17.9553 6.17011 16.3925 4.60726C14.8297 3.04441 12.71 2.16641 10.4999 2.16641C8.28977 2.16641 6.17016 3.04441 4.60736 4.60726C3.04456 6.17011 2.16658 8.28979 2.16658 10.5C2.16658 12.7102 3.04456 14.8299 4.60736 16.3927C6.17016 17.9556 8.28977 18.8336 10.4999 18.8336ZM11.5416 10.5H15.7082V12.5834H9.45824V5.2915H11.5416V10.5Z" fill="white"/>
</svg>
